<svg enable-background="new 0 0 595.28 841.89" version="1.1" viewBox="0 0 173.69 76.328" xml:space="preserve" xmlns="http://www.w3.org/2000/svg">
<g transform="translate(-211.31 -245.65)">
	<path d="m382.82 248.1c-0.271-1.35-1.623-2.441-2.982-2.441h-8.779c0.393 0.584 0.686 1.232 0.826 1.929 2.998 14.971 2.998 30.148-1e-3 45.115-0.141 0.695-0.433 1.342-0.823 1.926h8.777c1.359 0 2.711-1.09 2.982-2.441 2.915-14.552 2.915-29.537 0-44.088z" fill="#89ba17"/>
</g>
<path d="m157.58 2.441c-0.271-1.35-1.625-2.441-2.984-2.441h-8.777c0.392 0.584 0.686 1.232 0.826 1.929 2.998 14.968 2.998 30.146-2e-3 45.117-0.14 0.695-0.433 1.342-0.824 1.924h8.777c1.36 0 2.713-1.09 2.983-2.441 2.916-14.552 2.915-29.537 1e-3 -44.088z" fill="#ec7404"/>
<g transform="translate(-211.31 -245.65)">
	<path d="m354.96 248.1c-0.271-1.35-1.624-2.441-2.985-2.441h-8.78c0.392 0.584 0.686 1.232 0.827 1.929 2.998 14.968 2.998 30.146-2e-3 45.119-0.14 0.693-0.434 1.34-0.824 1.922h8.779c1.36 0 2.713-1.09 2.985-2.441 2.915-14.552 2.915-29.537 0-44.088z" fill="#c5007b"/>
</g>
<path d="m143.2 76.328-26.796-27.359h10.334c1.358 0 2.71-1.09 2.983-2.441 2.914-14.55 2.914-29.536 0-44.086-0.273-1.35-1.625-2.441-2.983-2.441h-121.57c-1.358 0-2.71 1.092-2.982 2.441-2.915 14.551-2.914 29.536 0 44.086 0.271 1.354 1.625 2.441 2.982 2.441h86.968z" fill="#87888a"/>
<g transform="translate(-211.31 -245.65)">
	
		<g fill="#fff">
			<path d="m244.37 282.44-1.704-5.93h-8.589l-1.721 5.93h-5.334l8.095-25.016h6.458l8.129 25.016zm-2.93-10.362-2.571-9.082s-0.246-1.132-0.47-2.062c-0.173 0.931-0.454 2.062-0.454 2.062l-2.589 9.082z"/>
			<path d="m272.21 282.44h-5.998l-5.738-10.054-0.389 0.753v9.301h-5.282v-24.914h5.282v10.516l0.912-1.503 5.283-9.013h5.861l-7.751 11.533z"/>
			<path d="m321.9 282.44h-5.999s-3.834-16.081-3.902-16.479-0.128-0.764-0.179-1.1c-0.051-0.334-0.088-0.604-0.11-0.809-0.023 0.204-0.06 0.475-0.111 0.809-0.051 0.336-0.11 0.699-0.179 1.091s-3.852 16.487-3.852 16.487h-6.016l-5.998-24.914h5.197s3.602 17.865 3.681 18.319c0.08 0.454 0.153 0.878 0.222 1.27s0.119 0.713 0.153 0.963c0.034-0.25 0.083-0.568 0.146-0.954 0.062-0.387 0.128-0.799 0.195-1.236 0.068-0.437 4.261-18.361 4.261-18.361h4.635s4.195 17.925 4.269 18.361c0.074 0.438 0.143 0.85 0.205 1.236s0.11 0.704 0.145 0.954c0.034-0.25 0.082-0.571 0.146-0.963 0.062-0.392 0.133-0.815 0.213-1.27 0.079-0.454 3.681-18.319 3.681-18.319h5.197z"/>
		</g>
	
	
		<path d="m283.31 282.73c-4.285-0.015-6.83-1.524-6.83-1.524v-4.712s2.632 1.974 6.085 2.017c2.124 0.026 3.806-0.659 3.976-2.42 0.212-2.195-1.293-3.136-3.081-4.097l-2.348-1.244c-2.198-1.174-4.211-3.207-4.211-6.729 0-5.441 4.695-6.9 8.123-6.9 3.652 0 6.538 1.737 6.538 1.737l-1.655 3.823s-2.156-1.398-4.652-1.398c-1.863 0-3.354 0.64-3.354 2.632 0 1.743 1.335 2.587 2.862 3.405l2.236 1.174c2.385 1.244 4.733 3.062 4.733 6.945 1e-3 5.43-4.695 7.304-8.422 7.291z" fill="#fff"/>
	
</g>
</svg>